<svg width="24" height="24" viewBox="0 0 24 24" fill="none" xmlns="http://www.w3.org/2000/svg">
<path fill-rule="evenodd" clip-rule="evenodd" d="M11.865 9.80368C11.8885 10.6097 11.3946 11.3406 10.638 11.6196C11.6236 11.8859 12.2854 12.8094 12.2209 13.8282C12.2209 16.2822 9.53374 16.3558 9.1411 16.3558H4.93251V7.64417H9.07975C11.7669 7.64417 11.865 9.1411 11.865 9.80368ZM8.6503 9.16564H6.84662V11.2025H8.79754C9.0936 11.238 9.39054 11.1436 9.61171 10.9436C9.83288 10.7436 9.95659 10.4576 9.95091 10.1595C9.95091 9.13144 8.93955 9.15823 8.688 9.16489C8.67236 9.16531 8.65964 9.16564 8.6503 9.16564ZM8.8957 14.908H6.84662V12.454H8.92024C9.27228 12.4078 9.62705 12.5164 9.89294 12.7517C10.1588 12.987 10.3098 13.3259 10.3067 13.681C10.3067 14.8712 9.07975 14.8712 8.8957 14.8712V14.908Z" fill="#333438"/>
<path d="M17.7914 8.45399H14.5399V9.25153H17.7914V8.45399Z" fill="#333438"/>
<path fill-rule="evenodd" clip-rule="evenodd" d="M14.0577 10.8293C14.6324 10.2453 15.4267 9.93081 16.2454 9.96319C18.454 9.96319 19.1411 11.8282 19.092 13.411H14.908C14.8545 13.8089 14.9844 14.2096 15.261 14.5005C15.5376 14.7914 15.9312 14.9413 16.3313 14.908C16.8557 14.9106 17.3342 14.6091 17.5583 14.135H18.9202C18.6172 15.3693 17.4631 16.2011 16.1963 16.0982C15.3804 16.1359 14.5876 15.8213 14.0195 15.2345C13.4514 14.6476 13.1627 13.8449 13.227 13.0307C13.1814 12.2126 13.483 11.4133 14.0577 10.8293ZM14.957 12.0245C14.9112 12.1505 14.8864 12.2832 14.8834 12.4172H17.4724C17.4531 12.0749 17.324 11.7479 17.1043 11.4847C16.8607 11.2623 16.5379 11.1473 16.2086 11.1656C15.9893 11.1564 15.7708 11.1984 15.5705 11.2883C15.4089 11.3669 15.2665 11.48 15.1534 11.6196C15.0614 11.7401 14.9947 11.8778 14.957 12.0245Z" fill="#333438"/>
<path fill-rule="evenodd" clip-rule="evenodd" d="M19.092 0H4.90798C2.19738 0 0 2.19738 0 4.90798V19.092C0 21.8026 2.19738 24 4.90798 24H19.092C21.8026 24 24 21.8026 24 19.092V4.90798C24 2.19738 21.8026 0 19.092 0ZM22.1595 19.092C22.1595 20.7862 20.7862 22.1595 19.092 22.1595H4.90798C3.21385 22.1595 1.84049 20.7862 1.84049 19.092V4.90798C1.84049 3.21385 3.21385 1.84049 4.90798 1.84049H19.092C20.7862 1.84049 22.1595 3.21385 22.1595 4.90798V19.092Z" fill="#333438"/>
</svg>
