<svg width="24" height="24" viewBox="0 0 24 24" fill="none" xmlns="http://www.w3.org/2000/svg">
<path fill-rule="evenodd" clip-rule="evenodd" d="M7.30964 0H16.6904C20.7274 0 24 3.27264 24 7.30964V16.6904C24 20.7274 20.7274 24 16.6904 24H7.30964C3.27264 24 0 20.7274 0 16.6904V7.30964C0 3.27264 3.27264 0 7.30964 0ZM22.1726 7.30964C22.1659 4.28467 19.7153 1.83411 16.6904 1.82741H7.30964C4.28467 1.83411 1.83411 4.28467 1.82741 7.30964V16.6904C1.83411 19.7153 4.28467 22.1659 7.30964 22.1726H16.6904C19.7153 22.1659 22.1659 19.7153 22.1726 16.6904V7.30964Z" fill="#333438"/>
<path fill-rule="evenodd" clip-rule="evenodd" d="M6.76142 12C6.76812 9.10959 9.10959 6.76812 12 6.76142C14.8904 6.76812 17.2319 9.10959 17.2386 12C17.2386 14.8932 14.8932 17.2386 12 17.2386C9.10681 17.2386 6.76142 14.8932 6.76142 12ZM15.4112 12C15.4112 10.1161 13.8839 8.58883 12 8.58883C10.1188 8.59552 8.59552 10.1188 8.58883 12C8.58883 13.8839 10.1161 15.4112 12 15.4112C13.8839 15.4112 15.4112 13.8839 15.4112 12Z" fill="#333438"/>
<path d="M16.4589 5.48833C16.4589 4.7583 17.0507 4.1665 17.7807 4.1665C18.5107 4.1665 19.1025 4.7583 19.1025 5.48833C19.1025 6.21835 18.5107 6.81015 17.7807 6.81015C17.0507 6.81015 16.4589 6.21835 16.4589 5.48833Z" fill="#333438"/>
</svg>
