<svg width="24" height="24" viewBox="0 0 24 24" fill="none" xmlns="http://www.w3.org/2000/svg">
<path fill-rule="evenodd" clip-rule="evenodd" d="M20.0143 18.6819C20.0164 18.9467 19.9312 19.0228 19.6736 19.0167C18.9418 19.0027 18.2099 18.9917 17.4793 19.0208C17.1124 19.0358 17.002 18.9406 17.007 18.5587C17.0292 16.9136 17.015 15.2675 17.018 13.6216C17.018 13.1705 16.9881 12.7234 16.8226 12.2982C16.5419 11.5805 16.0577 11.0944 15.2549 11.0241C14.4007 10.9489 13.7803 11.3379 13.3613 12.0587C13.0867 12.5309 13.0235 13.0581 13.0245 13.5974C13.0285 15.2605 13.0155 16.9226 13.0344 18.5847C13.0395 18.9427 12.9302 19.0318 12.5874 19.0198C11.8566 18.9947 11.1248 19.0008 10.3932 19.0178C10.1125 19.0248 10.0272 18.9406 10.0272 18.6559C10.0363 15.2314 10.0352 11.807 10.0293 8.3827C10.0293 8.13709 10.0794 8.02672 10.356 8.03284C11.1369 8.04978 11.9187 8.04978 12.6996 8.03284C12.9703 8.02783 13.0414 8.12597 13.0304 8.37869C13.0134 8.7887 13.0264 9.19961 13.0264 9.71688C14.1843 8.28536 15.5786 7.8153 17.2347 8.14912C18.8385 8.47282 19.9421 9.91647 19.9882 11.8502C20.0423 14.1257 20.0023 16.4043 20.0143 18.6819ZM6.53685 6.7587C5.56541 6.7566 4.80558 5.98671 4.80768 5.0084C4.80959 4.04192 5.59258 3.25409 6.54678 3.25599C7.50218 3.259 8.27806 4.04994 8.27505 5.01732C8.27294 5.99783 7.51121 6.76061 6.53685 6.7587ZM7.61145 19.0208C6.88159 18.9917 6.14892 19.0027 5.41816 19.0167C5.15642 19.0219 5.03824 18.9736 5.03914 18.6689C5.04927 15.2465 5.04816 11.8252 5.04014 8.40265C5.03914 8.12807 5.1054 8.02472 5.39801 8.03284C6.14491 8.05178 6.89362 8.0569 7.63952 8.03073C7.98325 8.0187 8.0464 8.14602 8.04449 8.45678C8.03146 10.1509 8.03838 11.8451 8.03838 13.5403C8.03838 15.2174 8.02846 16.8956 8.0455 18.5737C8.04951 18.9145 7.97122 19.0349 7.61145 19.0208ZM23.9488 4.06007C23.8806 3.51563 23.8716 2.95525 23.5709 2.46815C22.5976 0.889271 21.2543 -0.0100403 19.3286 8.45812e-05C14.457 0.0251462 9.58521 8.45821e-05 4.71335 0.0171265C3.98169 0.0190312 3.22887 0.0430903 2.56427 0.436057C0.942254 1.39642 -0.0100445 2.73872 7.99224e-05 4.70656C0.0230353 9.59468 7.99228e-05 14.4826 0.0160184 19.3716C0.0190256 20.0603 0.0291501 20.7811 0.389921 21.4016C1.24198 22.8693 2.36479 23.959 4.20914 23.9519C4.26227 23.9519 4.30347 23.9769 4.34757 24H19.7096C19.7949 23.9238 19.8991 23.9619 19.9953 23.9499C20.5476 23.8807 21.118 23.8777 21.6081 23.5609C22.9784 22.6747 23.9859 21.559 23.9549 19.7957C23.9549 19.7646 23.9768 19.7366 24 19.7106V4.34778C23.9317 4.26056 23.9608 4.15721 23.9488 4.06007Z" fill="#333438"/>
</svg>
